<?xml version="1.0" encoding="utf-8"?>
<!-- Generator: Adobe Illustrator 23.0.1, SVG Export Plug-In . SVG Version: 6.00 Build 0)  -->
<svg version="1.1" id="logo_1" xmlns="http://www.w3.org/2000/svg" xmlns:xlink="http://www.w3.org/1999/xlink" x="0px" y="0px"
	 viewBox="0 0 1920 1080" style="enable-background:new 0 0 1920 1080;" xml:space="preserve">
<style type="text/css">
	.st0{fill:none;stroke:#ffffea;stroke-width:20;stroke-linecap:round;stroke-linejoin:round;stroke-miterlimit:10;}
</style>
<g id="LWPOLYLINE">
	<path class="st0" d="M25.23,187.01c-0.1,0.27-0.16,0.56-0.16,0.84c-0.02,34.34-0.04,68.66-0.05,103
		C25,328.71,24.99,366.56,25,404.42c0.01,44.9,0.03,89.81,0.05,134.71l0.21,351.12l54,0.21l54,0.21V538.33V186.01H79.44
		c-9.2,0-18.39,0.01-27.59,0.04c-5.1,0.02-10.18,0.07-15.28,0.17c-3.52,0.07-7.03,0.14-10.54,0.23
		C25.67,186.45,25.36,186.67,25.23,187.01z"/>
</g>
<g id="LWPOLYLINE_1_">
	<path class="st0" d="M318.62,186.76c-0.12,0.2-0.27,0.37-0.44,0.52c-2.01,1.71-4.02,3.43-6.03,5.14c-2.28,1.94-4.57,3.88-6.85,5.81
		c-2.68,2.25-5.36,4.51-8.04,6.75c-3.57,2.98-7.13,5.97-10.71,8.95c-5.25,4.39-10.51,8.79-15.77,13.18
		c-5.84,4.88-11.67,9.76-17.5,14.63c-5.6,4.68-11.19,9.36-16.8,14.04c-5.27,4.41-10.55,8.82-15.83,13.23
		c-4.86,4.07-9.73,8.13-14.59,12.2c-4.08,3.41-8.16,6.82-12.24,10.22c-1.65,1.37-3.29,2.74-4.94,4.12l-7.75,6.45l-0.02,145.4
		l-0.02,145.4l6.16,7.65c1.18,1.46,2.35,2.92,3.54,4.37c2.19,2.68,4.37,5.37,6.56,8.05c2.56,3.15,5.12,6.28,7.68,9.42
		c2.65,3.24,5.29,6.48,7.94,9.72c2.63,3.22,5.26,6.44,7.89,9.66c2.52,3.09,5.04,6.16,7.55,9.25c2.14,2.62,4.27,5.23,6.41,7.85
		c1.1,1.34,2.19,2.68,3.27,4.03c5.77,7.1,11.54,14.2,17.31,21.29c7.07,8.67,14.13,17.34,21.2,26.01
		c6.71,8.23,13.42,16.46,20.14,24.68c2.74,3.37,5.5,6.72,8.26,10.08c3.21,3.91,6.42,7.82,9.61,11.75c3.16,3.88,6.29,7.76,9.42,11.66
		c3.04,3.79,6.09,7.58,9.12,11.39c0.13,0.16,0.2,0.35,0.2,0.56c0,0.11-0.08,0.19-0.19,0.19c-7.37,0.07-14.75,0.13-22.12,0.2
		c-8.17,0.07-16.33,0.13-24.51,0.17c-9.7,0.05-19.41,0.09-29.11,0.11l-75.92,0.21l-0.21,54.81l-0.21,54.81h281.39h281.39v-53.31
		c0-9.49-0.01-18.98-0.04-28.47c-0.01-4.92-0.07-9.84-0.17-14.75c-0.07-3.23-0.15-6.47-0.24-9.7c-0.02-0.5-0.24-0.97-0.63-1.28
		c-0.36-0.29-0.8-0.46-1.27-0.47c-5.88-0.1-11.76-0.18-17.64-0.26c-7.86-0.11-15.71-0.19-23.57-0.23
		c-12.35-0.06-24.69-0.11-37.03-0.14l-78.44-0.21V657.93V533.94l78.91-0.41c10.09-0.05,20.19-0.11,30.27-0.17
		c8.51-0.05,17.01-0.11,25.52-0.18c7.71-0.06,15.41-0.12,23.13-0.18c0.08,0,0.15-0.03,0.2-0.08c0.05-0.05,0.09-0.12,0.09-0.2
		c0-4.84,0-9.68,0-14.52c0-5.35-0.01-10.71-0.02-16.06c-0.02-6.35-0.04-12.69-0.07-19.04l-0.21-49.62l-204.86-0.22
		c-26.22-0.03-52.45-0.05-78.68-0.05c-22.17-0.01-44.35,0-66.53,0.03c-19.99,0.02-39.97,0.04-59.96,0.07c-0.5,0-1,0.06-1.48,0.18
		l-1.79,0.43v48.85c0,8.04,0.01,16.09,0.04,24.14c0.02,4.78,0.07,9.56,0.17,14.34c0.07,3.37,0.14,6.74,0.23,10.11
		c0.01,0.45,0.2,0.89,0.52,1.22c0.33,0.33,0.78,0.52,1.25,0.53c5.02,0.08,10.03,0.16,15.06,0.22c7.05,0.09,14.1,0.15,21.15,0.17
		c12.09,0.03,24.18,0.04,36.27,0.04h72.78v124.44c0,24.74-0.01,49.47-0.03,74.22c-0.01,10.12-0.07,20.23-0.17,30.36
		c-0.07,6.27-0.14,12.54-0.23,18.82c0,0.07-0.02,0.15-0.04,0.21c-0.12,0.31-0.47,0.47-0.79,0.35c-0.17-0.07-0.33-0.13-0.5-0.19
		c-0.16-0.06-0.31-0.11-0.47-0.16c-0.13-0.04-0.26-0.08-0.39-0.12c-0.05-0.02-0.11-0.02-0.17-0.02c-0.07,0-0.13-0.03-0.17-0.08
		c-0.58-0.7-1.16-1.39-1.72-2.09c-0.66-0.79-1.3-1.59-1.94-2.38c-0.75-0.94-1.51-1.88-2.25-2.82c-0.91-1.16-1.83-2.3-2.75-3.45
		c-1.17-1.45-2.33-2.89-3.51-4.33c-1.22-1.49-2.43-2.98-3.65-4.47c-1.07-1.3-2.15-2.6-3.21-3.89c-1.08-1.29-2.15-2.59-3.22-3.89
		c-1.22-1.48-2.44-2.97-3.65-4.45c-1.18-1.44-2.35-2.87-3.52-4.31c-0.93-1.14-1.85-2.28-2.77-3.43c-1.12-1.39-2.23-2.77-3.36-4.16
		c-2.06-2.54-4.12-5.07-6.17-7.6c-2.41-2.96-4.81-5.92-7.22-8.88c-2.48-3.05-4.97-6.09-7.45-9.13
		c-30.83-37.76-61.64-75.52-92.45-113.29c-23.81-29.19-47.6-58.38-71.39-87.59c-20.48-25.15-40.97-50.31-61.45-75.45
		c-0.24-0.28-0.41-0.61-0.53-0.95c-0.06-0.18-0.01-0.36,0.13-0.48c3.16-2.72,6.3-5.46,9.46-8.18c3.54-3.06,7.09-6.1,10.67-9.12
		c4.23-3.58,8.47-7.14,12.72-10.7c4.99-4.16,9.97-8.34,14.95-12.5c5.85-4.9,11.7-9.79,17.55-14.69c5.77-4.83,11.54-9.66,17.31-14.49
		c4.72-3.96,9.46-7.91,14.18-11.87c15.67-13.12,31.35-26.23,47.02-39.35c17.73-14.83,35.44-29.66,53.17-44.49
		c16.31-13.64,32.61-27.28,48.92-40.92c9.51-7.96,19.03-15.91,28.54-23.86c2.58-2.16,5.15-4.32,7.71-6.5
		c2.18-1.84,4.34-3.7,6.5-5.58c1.91-1.66,3.81-3.31,5.71-4.97c0.13-0.11,0.2-0.26,0.2-0.43c0-0.38-0.31-0.7-0.7-0.7
		c-27.65,0.01-55.31,0.03-82.97,0.04c-27.61,0.02-55.24,0.04-82.85,0.06C319.35,186.07,318.88,186.33,318.62,186.76z"/>
</g>
<g id="LWPOLYLINE_2_">
	<path class="st0" d="M790.49,433.87c-0.24,0.39-0.37,0.85-0.37,1.32c-0.03,15.78-0.06,31.54-0.08,47.32
		c-0.03,15.84-0.05,31.66-0.07,47.5c0,0.34,0.14,0.67,0.37,0.9c0.08,0.08,0.19,0.13,0.3,0.13c6.79,0.03,13.58,0.06,20.37,0.09
		c7.52,0.03,15.03,0.05,22.56,0.06c8.91,0.01,17.82,0.02,26.73,0.01c8.93,0,17.85,0.01,26.78,0.04c7.57,0.02,15.14,0.07,22.71,0.14
		c6.76,0.06,13.52,0.12,20.28,0.19c0.31,0,0.62,0.1,0.88,0.26c0.36,0.24,0.58,0.63,0.59,1.06c0.06,8.19,0.12,16.39,0.18,24.59
		c0.08,11.68,0.11,23.36,0.11,35.04c-0.01,21.55-0.03,43.1-0.07,64.64l-0.21,124.7l-70.11,0.21c-8.98,0.03-17.95,0.07-26.93,0.13
		c-7.59,0.05-15.19,0.12-22.78,0.21c-6.81,0.08-13.61,0.17-20.42,0.25c-0.24,0-0.47,0.1-0.64,0.26c-0.23,0.23-0.36,0.54-0.36,0.86
		c-0.08,11.94-0.15,23.87-0.22,35.81c-0.07,11.83-0.11,23.65-0.12,35.47c-0.01,11.27,0.01,22.54,0.07,33.81l0.01,1.79h124.75h124.75
		v-227.8c0-38.29-0.01-76.59-0.04-114.89c-0.02-21.75-0.07-43.51-0.16-65.26c-0.07-15.77-0.14-31.53-0.21-47.3
		c0-0.49-0.2-0.97-0.55-1.31c-0.58-0.58-1.35-0.89-2.17-0.9c-40.69-0.04-81.38-0.08-122.06-0.11h-0.01
		c-40.75-0.03-81.52-0.07-122.27-0.09h0.01C791.44,432.97,790.84,433.31,790.49,433.87z"/>
</g>
<g id="LWPOLYLINE_3_">
	<path class="st0" d="M1085.53,433.64c-0.42,0.42-0.67,1-0.67,1.61c0.04,25.85,0.08,51.7,0.13,77.55c0.04,25.7,0.09,51.4,0.15,77.1
		c0,0.92,0.24,1.83,0.67,2.65c0.44,0.83,0.96,1.63,1.55,2.36c2.46,3.09,4.93,6.17,7.41,9.24c3.92,4.87,7.86,9.73,11.82,14.58
		c7.96,9.76,15.91,19.51,23.88,29.26c3.87,4.73,7.74,9.48,11.6,14.21c3.37,4.13,6.73,8.25,10.1,12.38c2.9,3.56,5.79,7.1,8.69,10.66
		c0.5,0.62,1,1.22,1.49,1.84c0.51,0.64,1.02,1.27,1.53,1.9c4.09,5.02,8.18,10.03,12.27,15.04c4.69,5.75,9.38,11.5,14.07,17.26
		c5.44,6.67,10.89,13.34,16.32,20c19.41,23.78,38.82,47.56,58.23,71.36c11.77,14.43,23.53,28.88,35.28,43.33
		c8.76,10.79,17.53,21.58,26.29,32.36c0.32,0.39,0.58,0.84,0.76,1.31c0.07,0.19,0.22,0.34,0.4,0.42c0.29,0.14,0.61,0.24,0.93,0.31
		c0.43,0.1,0.87,0.17,1.31,0.21c0.55,0.04,1.1,0.07,1.65,0.07h3.9V809.6v-81.04l-6.53-8.04c-5.73-7.06-11.46-14.12-17.2-21.17
		c-5.24-6.45-10.48-12.89-15.73-19.32c-4.35-5.34-8.71-10.69-13.07-16.03c-2.54-3.11-5.08-6.2-7.63-9.3
		c-1.33-1.62-2.66-3.22-3.98-4.84c-1.55-1.89-3.11-3.79-4.65-5.68c-1.53-1.87-3.06-3.73-4.58-5.6c-1.24-1.53-2.49-3.06-3.73-4.59
		c-1.69-2.08-3.38-4.16-5.08-6.24c-3.97-4.87-7.94-9.74-11.91-14.61c-4.72-5.8-9.46-11.6-14.18-17.4
		c-5.1-6.24-10.18-12.49-15.28-18.74c-5.18-6.35-10.36-12.71-15.54-19.06c-4.99-6.12-9.98-12.25-14.97-18.37
		c-4.25-5.22-8.51-10.44-12.76-15.66c-2.25-2.76-4.51-5.53-6.75-8.29c-1.66-2.04-3.32-4.08-4.98-6.1c-1.76-2.17-3.53-4.32-5.3-6.49
		c-1.62-1.98-3.23-3.96-4.86-5.93c-1.15-1.4-2.29-2.8-3.45-4.19c-1.06-1.28-2.13-2.58-3.18-3.87c-1.3-1.59-2.6-3.17-3.89-4.75
		c-1.31-1.61-2.64-3.22-3.95-4.84c-1.13-1.38-2.24-2.76-3.37-4.14c-5.5-6.79-11-13.58-16.52-20.37c-3.06-3.77-6.13-7.53-9.22-11.28
		c-2.03-2.47-4.07-4.93-6.11-7.39c-0.52-0.63-1.09-1.21-1.71-1.74c-0.51-0.44-1.12-0.74-1.76-0.88c-1.07-0.24-2.15-0.39-3.23-0.49
		c-1.07-0.1-2.15-0.13-3.22-0.1C1086.43,433.03,1085.91,433.26,1085.53,433.64z"/>
</g>
<g id="LWPOLYLINE_4_">
	<path class="st0" d="M1375.34,433.64c-0.35,0.15-0.59,0.49-0.59,0.87c-0.07,15.13-0.14,30.26-0.21,45.39
		c-0.09,21.31-0.15,42.63-0.16,63.95c-0.03,39.5-0.04,79-0.04,118.5v228.3h53.81h53.81V662.37c0-45.34-0.01-90.68-0.03-136.02
		c-0.01-18.66-0.07-37.32-0.17-55.98c-0.07-11.85-0.14-23.69-0.22-35.54c0-0.54-0.34-1.03-0.84-1.22c-0.73-0.28-1.5-0.42-2.28-0.42
		c-16.81,0-33.61,0-50.42,0.01c-16.82,0.01-33.64,0.02-50.46,0.03C1376.77,433.21,1376.04,433.36,1375.34,433.64z"/>
</g>
<g id="LWPOLYLINE_5_">
	<path class="st0" d="M1524.72,433.64c-0.14,0.14-0.22,0.32-0.22,0.52c-0.05,7.69-0.11,15.38-0.16,23.09
		c-0.06,8.54-0.1,17.1-0.12,25.64c-0.03,10.12-0.04,20.24-0.04,30.36v79.08l5.42,6.67c1.07,1.31,2.13,2.63,3.19,3.93
		c2.12,2.6,4.23,5.19,6.35,7.78c2.5,3.06,5,6.11,7.5,9.18c2.62,3.2,5.24,6.41,7.86,9.61c4.24,5.19,8.49,10.38,12.73,15.57
		c2.72,3.33,5.44,6.66,8.15,9.99c2.68,3.28,5.34,6.58,8.02,9.87c4.04,4.99,8.08,9.98,12.12,14.96c1.68,2.07,3.35,4.14,5.03,6.19
		c2.59,3.17,5.17,6.36,7.77,9.53c2.92,3.58,5.84,7.15,8.76,10.73c2.86,3.5,5.71,7,8.57,10.48c2.72,3.33,5.46,6.66,8.18,9.99
		c2.52,3.09,5.05,6.16,7.56,9.25c2.12,2.59,4.23,5.17,6.34,7.76c0.87,1.07,1.75,2.15,2.63,3.22c0.6,0.73,1.2,1.47,1.78,2.19
		c0.65,0.79,1.3,1.6,1.95,2.39c0.61,0.74,1.22,1.49,1.82,2.22c0.45,0.55,0.9,1.1,1.36,1.65c0.49,0.59,0.98,1.19,1.46,1.77
		c0.75,0.92,1.51,1.85,2.26,2.77c0.85,1.05,1.7,2.09,2.55,3.14c0.83,1.03,1.67,2.06,2.49,3.09c0.83,1.04,1.67,2.07,2.51,3.1
		c0.86,1.06,1.72,2.12,2.6,3.17c0.77,0.94,1.55,1.88,2.32,2.81c0.51,0.62,1.03,1.22,1.55,1.83c0.39,0.46,0.77,0.92,1.15,1.39
		c0.33,0.42,0.66,0.85,0.97,1.29c0.25,0.36,0.5,0.73,0.74,1.11c0.09,0.14,0.14,0.29,0.14,0.45c0,0.19-0.15,0.34-0.34,0.34
		c-6.55,0.07-13.1,0.14-19.65,0.21c-7.79,0.08-15.59,0.14-23.38,0.16c-10.32,0.03-20.64,0.05-30.95,0.05
		c-9.6,0-19.21,0.02-28.82,0.06c-8.06,0.03-16.13,0.08-24.18,0.16c-7.15,0.07-14.3,0.14-21.45,0.21c-0.35,0-0.69,0.11-0.98,0.29
		c-0.4,0.25-0.65,0.69-0.66,1.16c-0.07,3.01-0.12,6.02-0.16,9.03c-0.05,4.7-0.06,9.41-0.03,14.11c0.07,9.63,0.16,19.26,0.25,28.89
		c0.07,6.73,0.14,13.46,0.2,20.2c0.06,5.72,0.11,11.45,0.17,17.17c0.05,5.11,0.1,10.22,0.15,15.33c0,0.26,0,0.53,0,0.8
		c0,0.32,0.25,0.59,0.57,0.59c0,0,0,0,0.01,0c12.46,0.07,24.93,0.14,37.39,0.21c17.61,0.09,35.22,0.15,52.82,0.16
		c32.7,0.03,65.41,0.04,98.11,0.04c24.14,0,48.29-0.01,72.44-0.03c20.32-0.02,40.66-0.05,60.98-0.09
		c18.44-0.04,36.88-0.08,55.33-0.12c0.09,0,0.16-0.07,0.16-0.16c0-0.16-0.06-0.31-0.16-0.44c-3.14-3.88-6.28-7.76-9.43-11.64
		c-3.96-4.89-7.93-9.77-11.91-14.64c-5.84-7.15-11.69-14.31-17.54-21.46c-1.09-1.33-2.18-2.66-3.26-3.99
		c-1.42-1.73-2.83-3.47-4.24-5.2c-1.49-1.83-2.98-3.65-4.47-5.49c-1.33-1.65-2.68-3.28-4.01-4.93c-1.53-1.88-3.06-3.76-4.59-5.63
		c-2.16-2.65-4.31-5.29-6.47-7.93c-2.35-2.88-4.7-5.76-7.06-8.65c-2.21-2.7-4.42-5.41-6.63-8.12c-2.19-2.68-4.39-5.37-6.58-8.05
		c-2.3-2.81-4.6-5.62-6.9-8.45c-2.08-2.55-4.16-5.1-6.24-7.64c-1.43-1.75-2.86-3.51-4.29-5.26c-1.12-1.38-2.24-2.75-3.37-4.13
		c-1.05-1.27-2.1-2.56-3.15-3.83c-0.88-1.07-1.76-2.14-2.66-3.2c-0.38-0.46-0.76-0.91-1.17-1.36c-0.31-0.36-0.63-0.73-0.93-1.09
		c-0.43-0.52-0.85-1.04-1.28-1.56c-0.46-0.57-0.92-1.14-1.38-1.71c-0.43-0.54-0.86-1.08-1.28-1.62c-0.62-0.79-1.24-1.58-1.88-2.36
		c-1.45-1.79-2.91-3.58-4.36-5.37c-1.73-2.13-3.47-4.25-5.2-6.38c-1.86-2.28-3.73-4.57-5.6-6.84c-2.02-2.46-4.03-4.92-6.05-7.38
		c-2.18-2.67-4.35-5.33-6.53-8.01c-2.02-2.48-4.04-4.96-6.06-7.45c-1.48-1.82-2.95-3.65-4.43-5.47c-3.12-3.87-6.24-7.74-9.37-11.6
		c-2.45-3.03-4.91-6.06-7.37-9.08c-2.32-2.85-4.64-5.7-6.98-8.54c-2.68-3.27-5.37-6.56-8.06-9.83c-1.59-1.93-3.17-3.87-4.77-5.81
		c-1.9-2.31-3.79-4.63-5.69-6.95c-1.89-2.31-3.79-4.63-5.68-6.95c-1.58-1.93-3.16-3.87-4.74-5.8
		c-11.38-13.95-22.76-27.92-34.14-41.87c-14.8-18.15-29.58-36.3-44.38-54.45c-14.26-17.5-28.51-34.99-42.77-52.49
		c-6.12-7.52-12.25-15.03-18.37-22.56c-2.51-3.09-5.03-6.16-7.55-9.24c-2.18-2.66-4.37-5.3-6.57-7.95
		c-1.91-2.29-3.82-4.59-5.73-6.88c-0.26-0.31-0.55-0.6-0.87-0.85c-0.44-0.35-0.97-0.58-1.54-0.66c-1.06-0.15-2.13-0.25-3.2-0.3
		c-1.07-0.06-2.14-0.07-3.2-0.03C1525.5,433.12,1525.06,433.31,1524.72,433.64z"/>
</g>
</svg>
